<svg xmlns="http://www.w3.org/2000/svg" xmlns:xlink="http://www.w3.org/1999/xlink" xmlns:serif="http://www.serif.com/" width="100%" height="100%" viewBox="0 0 339 87" xml:space="preserve" style="fill-rule:evenodd;clip-rule:evenodd;stroke-linejoin:round;stroke-miterlimit:2;"><g><path d="M272.711,22.586l-206.419,-0c-5.751,-0 -10.417,4.668 -10.417,10.429l-0,20.7c-0,5.761 4.666,10.43 10.417,10.43l206.419,-0c5.75,-0 10.414,-4.669 10.414,-10.43l0,-20.7c0,-5.761 -4.664,-10.429 -10.414,-10.429" style="fill:#292929;fill-rule:nonzero;"></path><path d="M121.145,14.295l-42.499,0c-5.75,0 -10.414,4.669 -10.414,10.43l0,37.281c0,5.76 4.664,10.429 10.414,10.429l42.499,0c5.751,0 10.417,-4.669 10.417,-10.429l0,-37.281c0,-5.761 -4.666,-10.43 -10.417,-10.43" style="fill:#fcb700;fill-rule:nonzero;"></path><path d="M162.398,40.415l-7.148,0c-0.257,0 -0.482,-0.165 -0.561,-0.405l-2.21,-6.811c-0.175,-0.545 -0.942,-0.545 -1.12,-0l-2.208,6.811c-0.078,0.24 -0.306,0.405 -0.563,0.405l-7.146,0c-0.573,0 -0.812,0.734 -0.348,1.071l5.784,4.208c0.204,0.15 0.293,0.417 0.215,0.66l-2.21,6.809c-0.178,0.544 0.445,0.997 0.906,0.662l5.784,-4.211c0.207,-0.149 0.487,-0.149 0.692,0l5.784,4.211c0.463,0.335 1.084,-0.118 0.909,-0.662l-2.21,-6.809c-0.079,-0.243 0.007,-0.51 0.214,-0.66l5.785,-4.208c0.461,-0.337 0.222,-1.071 -0.349,-1.071" style="fill:#fcb228;fill-rule:nonzero;"></path><path d="M189.726,40.415l-7.149,0c-0.256,0 -0.482,-0.165 -0.56,-0.405l-2.21,-6.811c-0.176,-0.545 -0.943,-0.545 -1.121,-0l-2.21,6.811c-0.079,0.24 -0.304,0.405 -0.561,0.405l-7.148,0c-0.571,0 -0.809,0.734 -0.346,1.071l5.782,4.208c0.209,0.15 0.293,0.417 0.215,0.66l-2.208,6.809c-0.178,0.544 0.445,0.997 0.906,0.662l5.785,-4.211c0.207,-0.149 0.487,-0.149 0.691,0l5.784,4.211c0.461,0.335 1.084,-0.118 0.909,-0.662l-2.21,-6.809c-0.079,-0.243 0.008,-0.51 0.212,-0.66l5.784,-4.208c0.464,-0.337 0.226,-1.071 -0.345,-1.071" style="fill:#fcb228;fill-rule:nonzero;"></path><path d="M217.053,40.415l-7.148,0c-0.254,0 -0.482,-0.165 -0.563,-0.405l-2.208,-6.811c-0.175,-0.545 -0.945,-0.545 -1.121,-0l-2.21,6.811c-0.078,0.24 -0.306,0.405 -0.56,0.405l-7.149,0c-0.571,0 -0.809,0.734 -0.345,1.071l5.781,4.208c0.21,0.15 0.294,0.417 0.215,0.66l-2.207,6.809c-0.178,0.544 0.442,0.997 0.906,0.662l5.784,-4.211c0.207,-0.149 0.485,-0.149 0.691,0l5.785,4.211c0.461,0.335 1.084,-0.118 0.906,-0.662l-2.208,-6.809c-0.081,-0.243 0.008,-0.51 0.212,-0.66l5.785,-4.208c0.461,-0.337 0.225,-1.071 -0.346,-1.071" style="fill:#fcb228;fill-rule:nonzero;"></path><path d="M244.381,40.415l-7.152,0c-0.254,0 -0.479,-0.165 -0.56,-0.405l-2.208,-6.811c-0.175,-0.545 -0.945,-0.545 -1.12,-0l-2.21,6.811c-0.079,0.24 -0.307,0.405 -0.561,0.405l-7.148,0c-0.571,0 -0.81,0.734 -0.346,1.071l5.782,4.208c0.207,0.15 0.293,0.417 0.214,0.66l-2.207,6.809c-0.178,0.544 0.443,0.997 0.906,0.662l5.782,-4.211c0.209,-0.149 0.487,-0.149 0.694,0l5.784,4.211c0.461,0.335 1.084,-0.118 0.906,-0.662l-2.207,-6.809c-0.079,-0.243 0.005,-0.51 0.212,-0.66l5.784,-4.208c0.461,-0.337 0.225,-1.071 -0.345,-1.071" style="fill:#fcb228;fill-rule:nonzero;"></path><path d="M271.708,40.415l-7.149,0c-0.256,0 -0.484,-0.165 -0.56,-0.405l-2.21,-6.811c-0.178,-0.545 -0.945,-0.545 -1.121,-0l-2.21,6.811c-0.078,0.24 -0.304,0.405 -0.56,0.405l-7.149,0c-0.571,0 -0.809,0.734 -0.346,1.071l5.782,4.208c0.207,0.15 0.293,0.417 0.215,0.66l-2.21,6.809c-0.176,0.544 0.448,0.997 0.908,0.662l5.782,-4.211c0.207,-0.149 0.49,-0.149 0.694,0l5.782,4.211c0.463,0.335 1.087,-0.118 0.909,-0.662l-2.21,-6.809c-0.076,-0.243 0.007,-0.51 0.214,-0.66l5.785,-4.208c0.461,-0.337 0.225,-1.071 -0.346,-1.071" style="fill:#fcb228;fill-rule:nonzero;"></path><path d="M125.299,43.364c-0,13.137 -11.376,23.79 -25.403,23.79c-14.028,-0 -25.4,-10.653 -25.4,-23.79c-0,-13.137 11.372,-23.787 25.4,-23.787c14.027,-0 25.403,10.65 25.403,23.787" style="fill:#e6a600;fill-rule:nonzero;"></path><path d="M99.909,48.216c-1.364,0 -2.357,1.027 -2.357,2.441c0,1.39 1.003,2.44 2.331,2.44c1.364,0 2.356,-1.026 2.356,-2.44c0,-1.414 -0.979,-2.441 -2.33,-2.441" style="fill:#1a1a1a;fill-rule:nonzero;"></path><path d="M88.196,49.685c-1.385,0 -2.655,-0.461 -3.32,-0.856l-0.809,-0.482l-1.064,3.242l0.49,0.319c0.89,0.574 2.6,1.189 4.732,1.189c4.176,0 7.206,-2.812 7.206,-6.688c0,-2.218 -1.042,-4.082 -2.846,-5.109c-1.134,-0.683 -2.559,-1.044 -4.122,-1.044c-0.194,-0 -0.366,0.005 -0.521,0.013l0.427,-2.849l6.716,-0l0,-3.493l-9.709,-0l-1.341,9.963l1.113,-0.139c0.608,-0.075 1.299,-0.162 2.168,-0.162c2.784,0 4.206,1.042 4.229,3.087c0,2.069 -1.736,3.009 -3.349,3.009" style="fill:#1a1a1a;fill-rule:nonzero;"></path><path d="M110.168,36.964c2.404,0 2.763,3.962 2.763,6.321c0,1.949 -0.272,6.479 -2.791,6.479c-1.702,-0 -2.76,-2.42 -2.76,-6.319c-0,-3.936 1.094,-6.481 2.788,-6.481Zm-0.159,16.133c4.31,0 6.782,-3.616 6.782,-9.919c-0,-5.976 -2.428,-9.545 -6.489,-9.545c-4.122,0 -6.782,3.842 -6.782,9.791c0.055,5.968 2.54,9.673 6.489,9.673" style="fill:#1a1a1a;fill-rule:nonzero;"></path></g></svg>